<?xml version="1.0" encoding="UTF-8" standalone="no"?><!DOCTYPE svg PUBLIC "-//W3C//DTD SVG 1.1//EN" "http://www.w3.org/Graphics/SVG/1.1/DTD/svg11.dtd"><svg width="100%" height="100%" viewBox="0 0 271 314" version="1.1" xmlns="http://www.w3.org/2000/svg" xmlns:xlink="http://www.w3.org/1999/xlink" xml:space="preserve" xmlns:serif="http://www.serif.com/" style="fill-rule:evenodd;clip-rule:evenodd;stroke-linejoin:round;stroke-miterlimit:2;"><path d="M0,174.406c0,-96.322 78.084,-174.406 174.406,-174.406l-0,10.605c-66.749,24.468 -114.379,88.572 -114.379,163.801l-0,54.883c28.413,-11.782 48.399,-39.789 48.399,-72.463c0,-43.306 35.106,-78.412 78.412,-78.412l0,-24.438c-0,-14.315 5.686,-28.044 15.808,-38.167c10.122,-10.123 23.852,-15.809 38.167,-15.809l0.001,78.413l30.015,0l0,60.832c-0,96.322 -78.084,174.406 -174.406,174.406l0,-10.605c66.749,-24.468 114.379,-88.572 114.379,-163.801l0,-54.883c-28.414,11.782 -48.4,39.789 -48.4,72.463c-0,43.306 -35.106,78.412 -78.412,78.412l0,24.438c0,14.315 -5.686,28.044 -15.808,38.167c-10.122,10.123 -23.852,15.809 -38.167,15.809l-0.001,-78.413l-30.014,-0l0,-60.832Z" style="fill:url(#_Radial1);"/><defs><radialGradient id="_Radial1" cx="0" cy="0" r="1" gradientUnits="userSpaceOnUse" gradientTransform="matrix(-210.799357,313.651185,-313.651185,-210.799357,240.814067,0)"><stop offset="0" style="stop-color:#b3e6dd;stop-opacity:1"/><stop offset="0.57" style="stop-color:#63cbba;stop-opacity:1"/><stop offset="1" style="stop-color:#40bfaa;stop-opacity:1"/></radialGradient></defs></svg>